<svg xmlns="http://www.w3.org/2000/svg" version="1.1" xmlns:xlink="http://www.w3.org/1999/xlink" xmlns:svgjs="http://svgjs.com/svgjs" width="442" height="519"><svg width="442" height="519" viewBox="0 0 442 519" fill="none" xmlns="http://www.w3.org/2000/svg">
<g clip-path="url(#clip0_102_6)">
<path d="M174.387 14.2451C121.262 34.792 85.6158 77.6347 48.7213 119.166C-17.0145 201.604 -16.203 327.758 51.0935 409.134C76.5014 435.802 107.59 457.785 138.055 478.519C169.705 501.377 209.284 513.93 247.739 518.739C278.641 518.614 310.541 508.872 339.008 497.318C375.34 481.58 396.191 449.541 412.922 415.317C435.208 363.294 451.439 312.02 434.833 255.438C416.73 206.85 376.464 166.068 332.827 139.338C293.998 115.481 242.87 103.927 199.296 120.977C169.143 130.907 146.42 154.701 127.629 179.245C110.274 202.978 91.8585 232.018 89.4238 261.933C88.1753 289.849 90.6099 316.767 108.527 339.312C134.559 371.475 163.837 399.579 205.351 409.384C236.69 415.067 273.334 409.884 295.496 384.903C315.223 361.483 331.891 331.193 329.144 299.592C326.397 261.621 298.929 226.023 260.225 220.027C231.258 215.218 201.356 227.147 191.929 256.687C183.751 276.609 185 307.524 210.533 312.77C240.123 314.643 223.767 259.747 259.351 263.307C278.329 266.804 284.634 289.725 280.888 306.212C274.021 337.563 245.117 368.915 210.533 362.295C185.312 355.925 160.341 335.128 146.857 313.207C130.438 277.609 145.359 241.886 167.583 213.032C187.372 184.866 221.02 173 254.169 171.501C289.128 170.627 319.655 193.11 342.504 217.467C365.851 242.073 387.014 270.614 388.263 305.9C384.33 349.055 368.473 391.273 344.376 427.246C323.9 454.725 292.812 466.216 260.162 471.899C219.085 478.145 178.82 454.6 145.359 433.429C121.449 415.942 90.4851 398.018 75.8147 371.85C56.6496 340.249 42.7907 306.212 44.289 268.553C45.7872 244.259 48.6589 219.403 58.46 196.92C71.9442 163.57 101.472 134.904 125.819 108.924C147.731 84.1922 180.568 68.8913 211.781 59.7732C270.65 45.8462 321.403 67.3924 372.594 93.81C391.384 103.865 406.991 127.097 430.339 121.289C443.136 113.732 440.702 94.8717 438.329 82.5685C431.587 59.2111 406.804 50.2179 386.827 41.2247C357.299 29.3587 327.708 13.8079 296.682 6.68827C254.918 -0.930976 214.028 -3.74135 174.387 14.2451Z" fill="#BA00B4"></path>
</g>
<defs>
<clipPath id="SvgjsClipPath1000">
<rect width="442" height="519" fill="white"></rect>
</clipPath>
</defs>
</svg><style>@media (prefers-color-scheme: light) { :root { filter: contrast(1) brightness(1); } }
</style></svg>