<svg width="442" height="893" viewBox="0 0 442 893" fill="none" xmlns="http://www.w3.org/2000/svg">
<g clip-path="url(#clip0_101_2)">
<path d="M174.387 14.2451C121.262 34.792 85.6158 77.6347 48.7213 119.166C-17.0145 201.604 -16.203 327.758 51.0935 409.134C76.5014 435.802 107.59 457.785 138.055 478.519C169.705 501.377 209.284 513.93 247.739 518.739C278.641 518.614 310.541 508.872 339.008 497.318C375.34 481.58 396.191 449.541 412.922 415.317C435.208 363.294 451.439 312.02 434.833 255.438C416.73 206.85 376.464 166.068 332.827 139.338C293.998 115.481 242.87 103.927 199.296 120.977C169.143 130.907 146.42 154.701 127.629 179.245C110.274 202.978 91.8585 232.018 89.4238 261.933C88.1753 289.849 90.6099 316.767 108.527 339.312C134.559 371.475 163.837 399.579 205.351 409.384C236.69 415.067 273.334 409.884 295.496 384.903C315.223 361.483 331.891 331.193 329.144 299.592C326.397 261.621 298.929 226.023 260.225 220.027C231.258 215.218 201.356 227.147 191.929 256.687C183.751 276.609 185 307.524 210.533 312.77C240.123 314.643 223.767 259.747 259.351 263.307C278.329 266.804 284.634 289.725 280.888 306.212C274.021 337.563 245.117 368.915 210.533 362.295C185.312 355.925 160.341 335.128 146.857 313.207C130.438 277.609 145.359 241.886 167.583 213.032C187.372 184.866 221.02 173 254.169 171.501C289.128 170.627 319.655 193.11 342.504 217.467C365.851 242.073 387.014 270.614 388.263 305.9C384.33 349.055 368.473 391.273 344.376 427.246C323.9 454.725 292.812 466.216 260.162 471.899C219.085 478.145 178.82 454.6 145.359 433.429C121.449 415.942 90.4851 398.018 75.8147 371.85C56.6496 340.249 42.7907 306.212 44.289 268.553C45.7872 244.259 48.6589 219.403 58.46 196.92C71.9442 163.57 101.472 134.904 125.819 108.924C147.731 84.1922 180.568 68.8913 211.781 59.7732C270.65 45.8462 321.403 67.3924 372.594 93.81C391.384 103.865 406.991 127.097 430.339 121.289C443.136 113.732 440.702 94.8717 438.329 82.5685C431.587 59.2111 406.804 50.2179 386.827 41.2247C357.299 29.3587 327.708 13.8079 296.682 6.68827C254.918 -0.930976 214.028 -3.74135 174.387 14.2451Z" fill="#BA00B4"/>
<path d="M173.667 269.107C179.893 270.853 182.04 278.347 187.76 280.08C188.373 281.72 188.973 283.373 189.387 285.08C189.573 286.347 189.76 287.6 189.947 288.867C187.16 292.453 185.787 296.573 183.893 300.64C181.76 305.4 179.693 309.92 175.547 313.293C172.933 313.333 170.52 313.6 168.053 314.547C163.373 311.387 162.013 310.373 162.853 304.24C164 299.213 165.693 294.36 167.227 289.453C169.56 282.627 165.573 272.947 173.667 269.107Z" fill="white"/>
<path fill-rule="evenodd" clip-rule="evenodd" d="M238.84 240.547C234.04 237 230.653 235.4 224.453 236.373C223.178 239.856 224.572 242.082 226.129 244.569C226.754 245.567 227.405 246.607 227.92 247.787C230.569 252.205 230.071 257.727 229.608 262.873C229.502 264.047 229.398 265.202 229.333 266.32C225.773 267.918 222.148 268.73 218.425 269.564C216.835 269.92 215.228 270.28 213.6 270.707C211.249 271.383 209.07 271.402 207.002 271.42C203.441 271.451 200.209 271.479 196.987 274.853C197.202 275.011 197.417 275.168 197.631 275.325L197.632 275.325L197.636 275.328C199.112 276.406 200.581 277.479 202 278.653C204.027 280.453 206.053 282.24 208.147 283.96C214.931 284.661 219.834 281.996 225.292 279.031L225.292 279.031L225.292 279.031C226.066 278.61 226.85 278.184 227.653 277.76L227.48 281.267C229.573 281.61 231.214 280.987 232.939 280.332C233.894 279.969 234.875 279.597 235.973 279.373C236.894 279.194 237.802 279.054 238.7 278.915L238.7 278.915L238.701 278.915L238.701 278.915C240.937 278.569 243.115 278.233 245.293 277.32C247.199 276.371 248.938 275.061 250.666 273.76C251.949 272.794 253.225 271.833 254.56 271.027C257.809 269.402 261.744 269.181 265.408 268.976C265.955 268.945 266.495 268.915 267.027 268.88C267.802 268.837 268.591 268.786 269.39 268.735L269.39 268.735L269.39 268.735C274.269 268.42 279.514 268.083 284.12 269.32C286.22 269.904 287.462 271.746 288.656 273.518L288.656 273.518C289.017 274.053 289.373 274.581 289.747 275.067C286.562 280.47 282.085 283.751 277.344 287.227C276.13 288.116 274.898 289.019 273.667 289.973C270.693 292.24 267.453 293.987 264.08 295.573C263.107 292.987 262.427 290.493 262.067 287.76C258.867 284.693 255.24 282.173 251.147 280.44C248.578 279.551 246.899 280.741 244.993 282.091L244.992 282.091C244.81 282.22 244.627 282.35 244.44 282.48C245.125 283.978 245.848 285.423 246.563 286.853L246.563 286.853C248.839 291.404 251.031 295.786 251.64 301.133C248.727 302.067 245.781 302.832 242.84 303.597C238.175 304.81 233.519 306.021 229.013 307.893C225.736 309.04 222.47 310.386 219.193 311.738C213.016 314.284 206.798 316.848 200.387 318.12C198.764 318.44 197.221 318.375 195.752 318.313C193.056 318.199 190.608 318.096 188.373 320.4C191.787 324.533 196.36 327.333 201.373 329.12C202.132 329.401 202.884 329.647 203.623 329.889L203.625 329.89L203.625 329.89C206.291 330.763 208.799 331.585 210.907 333.787C210.194 335.686 209.691 337.631 209.188 339.574C208.573 341.954 207.958 344.33 206.96 346.613C206.827 349.32 206.373 351.493 205.36 354.013C209.227 364.52 216.627 373.853 224.187 381.973C227.573 384.622 231.197 386.91 234.825 389.199L234.825 389.199C237.954 391.174 241.085 393.15 244.067 395.36C245.551 396.579 246.6 398.224 247.655 399.876C248.458 401.134 249.264 402.397 250.267 403.48C253.274 404.978 256.361 405.257 259.571 405.546C260.303 405.612 261.041 405.678 261.787 405.76C265.633 400.637 265.523 395.642 265.402 390.21C265.34 387.415 265.275 384.504 265.747 381.4L265.779 380.998L265.779 380.997C266.222 375.573 266.662 370.185 266.467 364.733C266.28 360.027 265.933 355.347 265.44 350.667C264.053 338.32 264.347 325.987 265.147 313.613C269.627 311.533 274.053 309.933 279.093 310.44C280.264 310.494 281.376 310.666 282.446 310.832C285.567 311.314 288.33 311.741 291.16 309.04C290.637 308.455 290.114 308.006 289.644 307.604L289.644 307.604C288.295 306.448 287.389 305.672 288.2 303.12C281.227 298.52 272.507 298.24 264.44 298.787C265.577 296.325 268.026 295.271 270.449 294.227C271.295 293.863 272.137 293.501 272.92 293.08C273.49 292.832 274.072 292.576 274.662 292.315L274.663 292.315C280.56 289.715 287.392 286.702 293.707 287.853C296.503 288.229 299.501 287.624 302.351 287.05C302.939 286.931 303.521 286.814 304.093 286.707C306.853 286 308.413 284.373 310.253 282.333C309.867 279.587 310.533 277.853 311.653 275.427C311.42 275.034 311.188 274.644 310.955 274.253L310.955 274.253C310.216 273.012 309.48 271.778 308.76 270.52C307.818 269.583 306.838 268.701 305.86 267.821L305.859 267.821L305.859 267.821L305.859 267.821C304.274 266.395 302.695 264.974 301.293 263.333C298.693 261.987 296.027 260.813 293.187 260.067C282.88 259.347 272.6 259.2 262.373 260.853C261.432 260.922 260.432 261.067 259.411 261.215C256.89 261.579 254.236 261.963 251.987 261.28C251.363 259.748 250.913 258.11 250.466 256.482L250.466 256.482C250.283 255.815 250.101 255.149 249.907 254.493C248.76 251.187 247.493 247.76 245.64 244.773C244.368 243.747 242.929 242.933 241.491 242.12C240.593 241.613 239.696 241.105 238.84 240.547ZM251.798 327.787C251.961 323.223 252.124 318.665 251.8 314.067C245.948 314.694 240.084 316.5 234.398 318.251L234.396 318.252C233.916 318.4 233.437 318.547 232.96 318.693C229.28 319.773 226.467 322.04 223.64 324.533C224.978 326.87 226.685 328.645 228.361 330.389C230.444 332.555 232.48 334.672 233.707 337.76C235.987 343.453 237.72 349.32 239.147 355.28C238.932 355.664 238.716 356.048 238.502 356.431C237.904 357.496 237.308 358.558 236.72 359.627C233.373 361.093 230.427 361.867 226.733 361.72C224.2 364.293 221.827 367.013 219.547 369.827C224.547 375.627 229.413 381.04 236.52 384.293C240.667 385.8 245.12 387.027 249.533 387.147L251.013 386.04C251.6 380.213 251.933 374.28 252.08 368.427C252.055 367.096 252.029 365.765 252.004 364.434C251.826 355.181 251.648 345.934 251.613 336.667C251.587 333.696 251.693 330.741 251.798 327.787ZM236.52 384.293C236.995 383.739 237.467 383.185 237.939 382.632C237.467 383.185 236.995 383.739 236.52 384.293ZM210.973 336.267C212.96 334.253 218.533 336.56 218.627 339.453C220.827 348.893 220.133 359.267 219.04 368.827C210.88 359.693 207.907 348.173 210.973 336.267Z" fill="white"/>
<path d="M193.507 424.733C201.413 429.667 207.733 436.107 208.6 445.867C210.693 445.627 212.787 445.453 214.893 445.453C216.627 445.96 218.44 446.467 220.053 447.333C221.747 449.893 223.067 452.72 224.64 455.347C221.893 455.813 219.12 456.253 216.4 456.867C212.013 459.013 207.853 461.867 203.36 463.733C200.307 464.853 196.48 463.133 193.347 464.28C187.12 466.44 181.52 470.32 175.4 472.8C170.453 473.133 165.28 472.6 160.573 471.053C156.947 469.827 155.253 467.067 152.92 464.28C157.147 463.387 161.413 463 165.72 462.667C172.387 462.2 177.547 458.507 183.693 456.093C186.6 454.773 190.173 453.853 192.613 451.76C194.147 447.88 194.333 442.96 192.48 439.147C189.573 433.133 185.373 428.56 181.84 423.027C186.387 420.893 189.493 422.547 193.507 424.733Z" fill="white"/>
<path d="M194.16 469.427C196.72 468.84 199.493 468.987 202.107 468.907C203.88 471.48 205.587 474.08 207.147 476.787C203.227 480.693 197.24 481.027 192.027 482.973C188.187 483.893 184.2 486.733 180.373 484.733C177.56 483.787 177.293 482.187 176.893 479.507C183.16 476.853 187.893 472.293 194.16 469.427Z" fill="white"/>
<path fill-rule="evenodd" clip-rule="evenodd" d="M279 399.653C281.773 401.827 283.827 404.6 285.76 407.52C287.053 413.32 287.107 419.56 286.627 425.467C291.427 427.013 295.867 428.96 300.12 431.707C301.28 433.427 302.533 435.093 303.827 436.733C299.584 439.857 295.316 439.097 290.772 438.287C289.575 438.073 288.36 437.857 287.12 437.707C283.608 437.034 280.826 438.292 277.784 439.669C277.512 439.792 277.237 439.916 276.96 440.04C273.221 441.485 270.464 445.036 267.913 448.322C267.262 449.16 266.624 449.982 265.987 450.747C269.223 453.903 270.331 457.738 271.543 461.932L271.547 461.947C272.653 461.681 273.78 461.436 274.913 461.188C278.163 460.479 281.464 459.759 284.48 458.533C287.533 460.373 290.493 462.32 293.213 464.627C289.769 467.165 285.96 468.994 282.156 470.82C278.907 472.38 275.663 473.937 272.653 475.933C275.333 475.613 277.827 474.973 280.36 474.067C280.57 474.139 280.779 474.212 280.988 474.284C283.384 475.111 285.728 475.921 287.96 477.16C288.24 478.573 287.787 479.6 286.587 480.24C284.582 481.457 282.264 482.221 280.002 482.965C279.828 483.022 279.655 483.079 279.482 483.136C278.929 483.255 278.206 483.351 277.453 483.452C275.751 483.678 273.896 483.925 273.5 484.5C273.703 484.297 274.732 484.176 275.916 484.037L275.916 484.037C276.831 483.93 277.838 483.812 278.628 483.637C282.446 484.216 285.488 485.488 288.84 487.453C286.967 490.119 283.8 491.446 280.628 492.775C278.629 493.613 276.627 494.451 274.947 495.627C274.294 497.973 273.614 500.319 272.934 502.665L272.933 502.667C278.588 499.199 284.253 498.727 290.419 498.213L290.419 498.213L290.42 498.213C291.508 498.122 292.612 498.03 293.733 497.92C295.387 499.76 297.013 501.6 298.6 503.48C291.773 505.611 284.707 507.077 277.655 508.54L277.655 508.54L277.655 508.54L277.655 508.54L277.654 508.54L277.654 508.54C273.674 509.366 269.698 510.191 265.773 511.133C270.627 513.493 271.893 514.947 274.213 519.84C272.865 522.625 271.322 525.327 269.777 528.03L269.775 528.033L269.774 528.036C269.471 528.566 269.168 529.096 268.867 529.627C268.38 530.442 267.882 531.253 267.384 532.065C266.628 533.298 265.87 534.533 265.147 535.787C264.704 535.623 264.24 535.476 263.772 535.328C262.673 534.981 261.548 534.625 260.613 534.027C259.712 533.023 259 531.831 258.301 530.661L258.301 530.661L258.3 530.66C258.089 530.307 257.88 529.956 257.667 529.613C259.011 527.34 260.204 524.925 261.381 522.543L261.383 522.54C261.607 522.088 261.83 521.636 262.053 521.187C257.067 522.507 252.16 523.907 247.4 525.867C246.023 525.218 244.645 524.581 243.268 523.944L243.263 523.942L243.258 523.94C242.572 523.622 241.886 523.305 241.2 522.987C245.133 520.942 249.204 519.279 253.284 517.612C255.165 516.844 257.048 516.074 258.92 515.267C261 514.453 262.573 513.093 264.16 511.573C259.616 512.337 255.436 513.732 251.163 515.158C249.544 515.699 247.911 516.243 246.24 516.76C243.608 517.47 241.589 518.95 239.492 520.487C238.912 520.912 238.326 521.341 237.72 521.76C235.213 521.027 232.707 520.267 230.213 519.427L229.733 518.16C229.214 516.801 228.681 515.442 228.148 514.082L228.147 514.08C230.32 502.067 232.267 489.987 234.173 477.933C232.875 479.372 231.589 480.857 230.292 482.354L230.292 482.354L230.291 482.354L230.291 482.355L230.291 482.355L230.291 482.355C226.782 486.406 223.194 490.547 219.067 494.12C216.107 496.68 212.64 497.48 208.907 498.24C209.253 495.613 209.667 493.013 210.2 490.413C209.909 490.641 209.62 490.868 209.332 491.096C206.206 493.557 203.165 495.952 199.32 497.307C196.655 498.359 194.117 499.669 191.592 500.972L191.591 500.972L191.591 500.972L191.591 500.972C187.143 503.268 182.734 505.544 177.733 506.36C174.502 506.883 172.49 503.541 170.859 500.831C170.451 500.153 170.067 499.515 169.693 498.987C177.15 497.32 183.348 493.839 189.587 490.334C194.281 487.697 198.998 485.047 204.293 483.147C207.236 482.613 209.364 483.904 211.627 485.277C212.246 485.653 212.875 486.035 213.533 486.387C216.547 483.933 219.36 481.32 222.093 478.573C224.095 476.532 226.151 474.524 228.211 472.512L228.211 472.512L228.211 472.512C233.779 467.073 239.373 461.61 243.987 455.4C242.949 453.75 241.924 452.1 240.9 450.451L240.899 450.449L240.898 450.447L240.897 450.445L240.896 450.444L240.894 450.442L240.893 450.44C242.056 447.879 241.798 445.753 241.473 443.084L241.453 442.92C241.219 443.105 240.976 443.292 240.73 443.482C239.202 444.661 237.527 445.954 236.573 447.573C236.073 448.763 235.717 450.011 235.36 451.259L235.36 451.259L235.36 451.26L235.36 451.26L235.36 451.26L235.36 451.26C235.014 452.474 234.667 453.69 234.187 454.853C232.16 456.867 228.48 454.427 226.773 452.907C223.373 448.267 220.827 442.333 223.773 436.76C225.667 437.667 227.547 438.587 229.413 439.507C233.52 438.587 237.547 437.52 241.573 436.28C241.832 431.32 240.506 427.023 239.108 422.495L239.108 422.493L239.107 422.491L239.106 422.488L239.106 422.487L239.105 422.485C238.847 421.649 238.587 420.804 238.333 419.947C242.8 419.947 246 422.44 249.133 425.28C249.9 426.484 250.497 427.791 251.095 429.099C251.609 430.226 252.124 431.352 252.747 432.413L256.8 431.613L254.24 435.147C254.376 435.75 254.515 436.346 254.653 436.936L254.653 436.936L254.653 436.937C255.685 441.367 256.644 445.485 255.973 450.227C256.843 449.069 257.726 447.93 258.606 446.794L258.607 446.794L258.607 446.794C261.518 443.038 264.4 439.318 266.693 435.08C264.76 433.573 262.933 432.013 261.32 430.187C263.711 428.801 266.25 428.006 268.811 427.204C270.02 426.825 271.234 426.445 272.44 426C276.45 420.573 276.9 415.307 277.368 409.825C277.649 406.539 277.936 403.176 279 399.653ZM259.533 455.387C260.84 458.48 261.853 461.627 262.72 464.853C261.441 465.219 260.043 465.715 258.578 466.235C253.263 468.12 247.069 470.318 242.48 467.747C248.136 466.178 253.035 461.533 257.413 457.381C258.133 456.697 258.84 456.027 259.533 455.387ZM253.778 479.417C257.077 477.791 260.296 476.204 263.28 473.853C260.909 474.006 258.657 474.396 256.436 474.78C252.074 475.535 247.833 476.269 243.053 475.147C242.514 478.558 241.849 481.942 241.184 485.324L241.184 485.324L241.184 485.324L241.184 485.324L241.183 485.325C240.271 489.965 239.359 494.602 238.773 499.307C240.76 495.955 242.117 492.307 243.477 488.65C244.508 485.876 245.542 483.097 246.853 480.44C247.467 480.54 248.077 480.643 248.687 480.747C249.297 480.85 249.907 480.953 250.52 481.053C251.611 480.485 252.699 479.949 253.778 479.417ZM244.68 495.067C249.387 493.267 253.827 491.027 257.733 487.8C252.957 488.397 248.955 490.543 244.816 492.763C244.611 492.873 244.406 492.983 244.2 493.093L244.68 495.067ZM257.466 499.226L257.459 499.23C253.068 501.984 248.659 504.748 244.067 507.147C242.877 507.797 241.631 507.929 240.336 508.065L240.335 508.066C240.092 508.091 239.847 508.117 239.6 508.147C240.2 506.52 240.813 504.893 241.44 503.267C244.395 502.749 247.206 501.784 250.02 500.817C252.932 499.817 255.848 498.815 258.933 498.307C258.444 498.613 257.955 498.919 257.466 499.226ZM257.593 506.365C260.696 505.871 264.771 505.223 264 501.973C260.507 502.04 257.573 504.427 255.24 506.827C255.838 506.644 256.672 506.511 257.593 506.365Z" fill="white"/>
<path fill-rule="evenodd" clip-rule="evenodd" d="M214.072 500.629C212.747 499.683 211.267 498.625 209.787 498.88C208.017 499.895 206.964 501.76 205.898 503.644C204.949 505.325 203.99 507.022 202.507 508.147C201.616 508.847 200.727 509.541 199.84 510.233L199.84 510.233L199.84 510.233L199.84 510.233C194.804 514.161 189.857 518.02 185.333 522.68C182.608 517.596 178.292 514.914 173.669 512.04C173.09 511.68 172.506 511.318 171.92 510.947C171.187 511.519 170.455 512.079 169.722 512.638L169.722 512.638L169.72 512.64C170.279 516.456 171.538 520.047 172.792 523.624C174.14 527.471 175.484 531.304 175.947 535.387C175.88 536.733 175.8 538.067 175.72 539.4C176.96 540.68 178.2 541.987 179.427 543.293C179.766 543.787 180.088 544.317 180.414 544.852C181.558 546.735 182.745 548.688 184.893 549.373C186.28 549.954 187.97 549.717 189.547 549.496C190.033 549.427 190.508 549.361 190.96 549.32C191.84 549.947 192.733 550.56 193.627 551.173L193.413 548.733C194.456 547.866 195.399 546.975 196.315 546.109L196.315 546.109C198.455 544.085 200.452 542.196 203.253 541.067C203.89 540.777 204.52 540.485 205.148 540.194C208.45 538.663 211.672 537.169 215.28 536.307C215.806 536.131 216.39 535.995 216.988 535.856L216.988 535.856C218.299 535.551 219.67 535.232 220.613 534.453C220.933 532.013 221.147 529.56 221.36 527.107L221.36 527.107L221.356 527.106L221.355 527.106L221.355 527.106C219.797 526.973 218.238 526.84 216.68 526.72C216.845 526.358 217.01 525.996 217.175 525.634C217.746 524.382 218.319 523.128 218.867 521.867C221.877 528.1 228.993 532.486 235.768 536.662C239.224 538.793 242.591 540.868 245.28 543.107C240.387 547.133 235.067 550.52 229.067 552.64C224.48 554.293 220.347 555.12 215.44 554.627C216.133 555.787 216.88 556.907 217.667 558C219.032 558.175 220.404 558.307 221.776 558.438C223.954 558.647 226.134 558.855 228.293 559.24C233.014 560.289 238.371 558.626 243.057 557.171C243.493 557.036 243.923 556.903 244.347 556.773C247.149 556.1 249.157 553.506 251.02 551.098C251.63 550.309 252.225 549.541 252.827 548.867C263.04 555.947 272.973 562.667 284.733 566.987C291.2 569.56 299.893 572.747 306.76 570.507C307.893 570.067 309.027 569.6 310.147 569.12L310.44 566.48C312.641 565.064 315.666 565.076 318.545 565.087C319.921 565.092 321.264 565.098 322.467 564.947C321.747 563.848 321.004 562.764 320.261 561.68L320.259 561.678L320.259 561.678C319.406 560.433 318.553 559.188 317.733 557.92C311.787 556.04 305.693 554.947 299.547 553.96C294.92 553.093 290.28 552.253 285.64 551.413C278.178 550.296 270.9 546.168 264.216 542.377C263.484 541.961 262.758 541.55 262.04 541.147C262.64 540.123 263.236 539.09 263.833 538.056L263.834 538.055L263.834 538.054C264.271 537.298 264.707 536.541 265.147 535.787C264.704 535.623 264.24 535.476 263.772 535.328L263.771 535.328C262.673 534.981 261.548 534.625 260.613 534.027C259.712 533.023 259 531.83 258.301 530.661L258.301 530.661L258.301 530.66C258.09 530.307 257.88 529.956 257.667 529.613C256.227 531.627 254.52 533.4 252.76 535.133C252.76 535.133 252.76 535.133 252.76 535.133C249.44 532.68 245.987 530.453 242.467 528.293C242.467 528.293 242.467 528.293 242.467 528.293L242.786 528.131C244.308 527.357 245.842 526.577 247.4 525.867C246.023 525.218 244.646 524.581 243.269 523.945L243.268 523.944C242.578 523.625 241.889 523.307 241.2 522.987L241.2 522.987C240.964 523.099 240.738 523.209 240.52 523.315C237.724 524.668 236.317 525.35 233.2 523.507L233.2 523.507L233.2 523.507C234.72 522.933 236.227 522.36 237.72 521.76C235.213 521.027 232.707 520.267 230.213 519.427L230.827 521.76C227.267 520.427 223.627 519.347 219.96 518.347C221.12 515.533 222.373 513.093 224.48 510.853C224.417 510.469 224.359 510.09 224.303 509.717C223.832 506.615 223.421 503.905 220.387 502.013C218.68 501.773 216.96 501.573 215.24 501.427C214.868 501.199 214.477 500.919 214.072 500.629ZM205.48 517.173C203.08 524.64 197.96 530.427 191.427 534.587C192.238 528.675 197.313 524.305 201.959 520.303C203.192 519.241 204.395 518.205 205.48 517.173Z" fill="white"/>
<path d="M252.187 598.013C256.613 598.947 259.107 600.16 262.347 603.32C262.253 605.867 262.133 607.853 263.573 610.08C262.48 611.4 261.373 612.72 260.28 614.04C259.493 613.373 258.72 612.707 257.933 612.04C253.493 617.307 249.293 622.44 243.707 626.587C241.24 628.373 239.08 630.267 237.133 632.627C237.16 633.973 237.187 635.32 237.2 636.667C236.293 637.093 235.4 637.52 234.493 637.96C234.92 639.707 234.12 641.48 236.213 642.147C240.32 641.84 243.973 640.507 247.693 638.84C253.52 638.293 259.107 638.533 264.613 636.08C267.987 637.867 273.387 639.427 275.307 642.893C275.973 645.64 276.427 648.427 277.293 651.133C266.627 649.707 256.333 651.187 245.947 653.653C248.173 658.413 251.653 662.027 254.96 666.027C260.693 672.987 267.267 679.92 274.867 684.84C281.147 687.987 287.867 690.053 293.92 693.747C301.64 698.293 310.64 700.853 317.76 706.213C318.36 709.347 320.627 710.787 322.733 712.893C319.24 713.84 316.04 714.96 312.347 714.52C308.253 714.36 303.64 713.653 299.84 715.333C295.8 716.747 291.827 717.693 287.64 716.12C278.307 712.653 269.96 704.987 262.52 698.493C251.853 688.133 242.76 675.973 235.027 663.307C233.893 661.987 232.547 659.32 230.533 659.667C226.987 668.08 225.52 676.413 219.48 683.707C214.867 690.693 209.28 696.467 202.147 700.867C196.387 703.827 190.44 704.56 184.187 705.8C182.16 706.2 180.253 705.947 178.227 705.813C177.827 704.6 177.427 703.387 177.027 702.173C183.467 700.8 188.973 697.147 194.827 693.827C199.48 691.24 202.293 687.293 205.427 683.133C210.68 675.747 215.6 668.547 218.413 659.827C211.747 660.133 205.453 664.107 198.933 663.787C197.013 660.413 198.347 654.853 198.493 651.04C205.373 647.28 210.613 641.853 216.587 636.893C219.853 633.787 223.427 631.893 224.613 627.24C220.987 626.773 217.227 626.48 213.667 625.693C209.693 625.147 206.853 621.093 203.32 619.133C206.667 617.12 209.613 615.04 213.653 614.72C218.707 614.133 222.16 612.96 226.213 609.787C231.92 608.573 236.173 605.267 241.387 602.907C244.987 601.253 248.573 599.613 252.187 598.013Z" fill="white"/>
<path d="M219.48 645.173C220.093 645.84 220.093 645.84 219.48 645.173V645.173Z" fill="#9D9D9D"/>
<path fill-rule="evenodd" clip-rule="evenodd" d="M256.307 743.387C254.453 739.653 252.787 735.933 251.293 732.04C247.756 739.263 248.296 746.035 248.873 753.259V753.259V753.259C249.077 755.81 249.285 758.417 249.32 761.12C247.938 761.604 246.49 762.148 244.993 762.709C236.929 765.733 227.474 769.28 219.613 766.907C220.013 771.2 222.88 774.84 225.987 777.627C228.469 779.327 231.929 779.672 235.09 779.987L235.09 779.987C235.92 780.07 236.728 780.151 237.493 780.253C240.957 780.664 243.79 779.62 246.811 778.505C247.615 778.209 248.433 777.907 249.28 777.627C249.16 778.372 249.04 779.12 248.921 779.869L248.92 779.872C248.8 780.622 248.68 781.373 248.56 782.12C237.813 784.667 227.547 788.013 218.467 794.48C218.236 794.133 217.999 793.787 217.76 793.438L217.759 793.438L217.759 793.437L217.759 793.437C216.684 791.87 215.585 790.269 215.04 788.48C215.51 786.985 216.63 785.661 217.681 784.418C217.942 784.11 218.199 783.806 218.44 783.507C216.387 784.733 214.52 785.413 212.173 785.893C212.094 786.214 212.015 786.533 211.936 786.85C211.024 790.494 210.175 793.892 211.267 797.707C213.493 806.187 217.72 814.827 223.253 821.653C225.24 824.133 227.853 824.92 230.813 825.667C232.24 824.973 233.707 824.333 235.187 823.733C235.415 821.293 238.05 820.462 240.454 819.704C241.425 819.398 242.359 819.104 243.08 818.72C242.517 820.726 242.044 822.799 241.569 824.88L241.568 824.881L241.568 824.881L241.568 824.881C240.445 829.8 239.312 834.765 236.96 839C231.029 837.24 225 836.28 218.946 835.316C216.331 834.9 213.712 834.483 211.093 834C209.297 833.643 207.601 833.93 205.893 834.219C204.09 834.524 202.272 834.832 200.307 834.387C201.307 832.347 202.373 830.333 203.493 828.333C200.958 832.193 197.611 833.738 193.678 835.553L193.677 835.554L193.648 835.567C193.434 835.666 193.218 835.766 193 835.867C192.881 831.146 193.661 826.604 194.442 822.054C194.976 818.944 195.511 815.831 195.76 812.653C196.155 809.611 194.835 807.41 193.42 805.049C193.017 804.377 192.607 803.693 192.227 802.973C194.181 799.485 196.377 796.059 198.579 792.622C202.941 785.814 207.328 778.968 209.907 771.533C211.278 767.645 210.196 764.273 209.054 760.712C208.775 759.841 208.492 758.958 208.24 758.053C208.176 758.226 208.112 758.399 208.049 758.572C207.079 761.205 206.131 763.778 204.467 766.093C199.669 772.781 194.541 778.927 189.365 785.13L189.364 785.13C187.276 787.633 185.179 790.146 183.093 792.707C179.76 796.507 176.107 800.053 172.373 803.467C170.877 804.754 169.778 806.211 168.698 807.643C167.091 809.773 165.526 811.848 162.76 813.227L160.32 812.28C156.747 817.52 154.8 824.253 154.12 830.493C159.84 831.707 162.147 830.333 166.427 827.027C166.811 826.71 167.194 826.393 167.576 826.077C170.703 823.488 173.777 820.943 177.413 819.053C179.243 818.228 180.485 816.879 181.735 815.521C182.808 814.355 183.887 813.183 185.347 812.333C184.964 819.923 183.525 827.49 182.096 835.01L182.096 835.01C181.584 837.702 181.074 840.388 180.613 843.067C180 846.84 179.013 850.027 177.333 853.467C175.36 861.2 176.227 868.427 178.787 875.893C182.347 876.653 185.92 877.333 189.547 877.72C191.664 872.688 190.899 868.335 190.001 863.23L189.947 862.92C193.107 865.573 195.653 866.573 199.76 867.28C199.133 865.467 198.093 864.507 196.68 863.267C200.333 862.693 203.333 861.347 206.467 859.413C199.507 858.64 195.8 853.507 193.813 847.267C193.813 847.267 193.813 847.267 193.813 847.267C193.813 847.267 193.813 847.267 193.813 847.267C194.8 846.24 195.787 845.227 196.787 844.213C199.366 843.99 201.923 844.096 204.489 844.202C206.366 844.279 208.248 844.357 210.147 844.307C216.882 844.402 222.803 846.285 229.04 848.27C229.804 848.513 230.572 848.757 231.347 849L231.347 849L231.26 849.129L231.26 849.129C230.026 850.962 228.86 852.693 226.867 853.813C220.893 857.44 213.333 858.68 206.493 859.413C210.154 860.829 213.587 860.629 216.972 860.431C221.146 860.188 225.248 859.949 229.613 862.747C233.298 860.383 236.034 856.776 238.675 853.295L238.676 853.293L238.684 853.282C238.946 852.938 239.206 852.594 239.467 852.253C240.527 852.719 241.587 853.175 242.643 853.63L242.644 853.63L242.645 853.631L242.645 853.631C248.602 856.193 254.45 858.709 259.693 862.707C265.27 866.662 271.19 869.97 277.11 873.28C281.948 875.984 286.787 878.689 291.44 881.747C293.747 881.84 295.88 881.973 297.947 883.107C300.226 884.344 302.573 885.358 304.91 886.368C308.642 887.98 312.35 889.582 315.72 892.067C315.933 891.413 316.147 890.747 316.347 890.093C314.107 886.44 312.84 882.76 311.64 878.68C305.333 872.147 297.48 866.627 289.68 861.987C275.36 854.293 260.907 847.04 245.667 841.307C246.917 837.793 247.957 834.183 248.999 830.566C250.346 825.893 251.695 821.209 253.507 816.707C256.766 815.865 260.097 815.257 263.427 814.649C268.066 813.802 272.701 812.955 277.133 811.48C276.256 808.706 275.326 805.942 274.399 803.188L274.053 802.16C275.73 800.544 277.049 798.732 278.358 796.932C280.214 794.381 282.052 791.854 284.867 789.947C284.697 789.332 284.555 788.696 284.412 788.056C283.913 785.823 283.403 783.543 281.693 781.947C280.025 780.452 278.009 779.319 276.014 778.197C275.09 777.678 274.171 777.162 273.293 776.613C267.8 778.12 262.32 779.387 256.653 780.093C257.16 774.72 260.387 773.387 264.92 771.907C266.94 771.011 268.903 771.184 270.858 771.357C272.567 771.509 274.271 771.659 276 771.093C278.248 770.379 278.635 770.614 280.641 771.836L280.8 771.933C280.816 770.06 280.127 768.522 279.426 766.957L279.426 766.957C278.974 765.948 278.517 764.928 278.24 763.8C275.139 761.1 271.628 759.941 267.955 758.729L267.955 758.729C266.857 758.367 265.746 758.001 264.627 757.587C262.107 758.267 259.587 758.88 257.027 759.387C257.058 757.996 257.194 756.56 257.331 755.111V755.11V755.11C257.711 751.085 258.101 746.955 256.307 743.387ZM254.827 796.587C258.147 794 261.36 791.373 263.84 787.92L263.489 787.974C261.281 788.318 258.917 788.685 256.853 789.533C254.958 790.544 254.943 792.582 254.929 794.55C254.923 795.255 254.918 795.95 254.827 796.587ZM247.839 795.575L247.839 795.576C247.597 798.455 247.349 801.409 246.36 804.04C243.533 807.373 238.333 810.533 233.933 810.92C229.453 810.427 226 805.573 223.6 802.173C227.584 801.199 231.209 799.408 234.843 797.613C239.064 795.528 243.298 793.437 248.12 792.613C248.006 793.58 247.923 794.573 247.839 795.575Z" fill="white"/>
<path d="M206.467 859.413H206.493C214.667 862.573 221.707 857.68 229.613 862.747C220.36 868.8 210.347 868.16 199.76 867.28C199.133 865.467 198.093 864.507 196.68 863.267C200.333 862.693 203.333 861.347 206.467 859.413Z" fill="white"/>
<path d="M178.787 875.893C182.347 876.653 185.92 877.333 189.547 877.72C188.893 879.067 188.187 880.387 187.48 881.72C186.4 880.747 185.32 879.773 184.227 878.8C181.4 878.547 180.587 878.013 178.787 875.893Z" fill="white"/>
</g>
<defs>
<clipPath id="clip0_101_2">
<rect width="442" height="893" fill="white"/>
</clipPath>
</defs>
</svg>
