<svg width="470" height="52" viewBox="0 0 470 52" fill="none" xmlns="http://www.w3.org/2000/svg">
<path d="M9.46582 51H37.1858V50.02C30.9558 49.88 29.2058 48.9 29.2058 46.45V3.4H30.1858C35.5758 3.4 39.6358 9 44.9558 19.08L46.0758 18.94L45.7258 2.21H0.925821L0.50582 18.94L1.62582 19.08C6.94582 9 11.0058 3.4 16.3958 3.4H17.4458V46.45C17.4458 48.9 15.6258 49.88 9.46582 50.02V51ZM50.284 51H69.254V50.16C66.804 50.09 65.754 49.39 65.754 47.71V26.43C67.504 24.26 69.184 22.86 71.354 22.86C74.504 22.86 76.044 25.03 76.044 28.67V47.71C76.044 49.39 74.994 50.09 72.544 50.16V51H91.584V50.16C87.524 50.09 86.824 49.39 86.824 47.71V28.6C86.824 21.88 84.094 18.17 77.864 18.17C73.384 18.17 68.694 20.9 65.754 25.03V0.809999L50.004 1.65V2.49C54.274 2.56 54.974 3.82 54.974 5.92V47.71C54.974 49.39 54.204 50.09 50.284 50.16V51ZM110.865 51.56C117.725 51.56 122.275 48.55 125.565 43.44L124.795 42.95C122.205 46.52 119.405 48.55 115.275 48.55C108.555 48.55 104.985 44.07 104.985 35.25V35.11V34.13H125.705C126.195 24.47 120.805 17.96 110.795 17.96C101.275 17.96 93.6452 24.26 93.6452 35.25C93.6452 45.89 100.645 51.56 110.865 51.56ZM110.375 19.36C114.225 19.36 115.835 24.61 114.925 32.73H104.985C105.265 24.47 106.735 19.36 110.375 19.36ZM172.964 44.77C174.224 48.27 172.824 49.67 166.104 50.02V51H192.774V50.02C187.594 49.18 186.544 48.2 185.214 44.63L169.254 1.23H163.094L148.814 38.61C146.154 45.54 143.354 48.83 138.734 50.02V51H155.394V50.02C148.884 49.11 147.694 46.31 150.354 39.24L152.874 32.52H168.624L172.964 44.77ZM153.364 31.12L160.714 11.31H161.064L168.134 31.12H153.364ZM192.472 51H212.632V50.16C208.642 50.09 207.942 49.39 207.942 47.71V0.809999L192.192 1.65V2.49C196.462 2.56 197.162 3.82 197.162 5.92V47.71C197.162 49.39 196.392 50.09 192.472 50.16V51ZM232.34 51.56C239.2 51.56 243.75 48.55 247.04 43.44L246.27 42.95C243.68 46.52 239.62 48.62 236.05 48.62C229.26 48.62 226.53 41.69 226.53 34.55C226.53 25.38 228.98 19.22 233.32 19.22C235.84 19.22 237.45 20.41 238.08 21.6C236.75 22.23 235.35 23.98 235.35 26.29C235.35 29.09 237.24 31.61 241.16 31.61C244.66 31.61 246.62 29.3 246.62 25.94C246.62 22.3 242.98 17.96 232.97 17.96C222.68 17.96 215.12 24.26 215.12 35.25C215.12 45.61 221.63 51.56 232.34 51.56ZM248.936 51H267.906V50.16C265.456 50.09 264.406 49.39 264.406 47.71V26.43C266.156 24.26 267.836 22.86 270.006 22.86C273.156 22.86 274.696 25.03 274.696 28.67V47.71C274.696 49.39 273.646 50.09 271.196 50.16V51H290.236V50.16C286.176 50.09 285.476 49.39 285.476 47.71V28.6C285.476 21.88 282.746 18.17 276.516 18.17C272.036 18.17 267.346 20.9 264.406 25.03V0.809999L248.656 1.65V2.49C252.926 2.56 253.626 3.82 253.626 5.92V47.71C253.626 49.39 252.856 50.09 248.936 50.16V51ZM309.518 51.56C316.378 51.56 320.928 48.55 324.218 43.44L323.448 42.95C320.858 46.52 318.058 48.55 313.928 48.55C307.208 48.55 303.638 44.07 303.638 35.25V35.11V34.13H324.358C324.848 24.47 319.458 17.96 309.448 17.96C299.928 17.96 292.298 24.26 292.298 35.25C292.298 45.89 299.298 51.56 309.518 51.56ZM309.028 19.36C312.878 19.36 314.488 24.61 313.578 32.73H303.638C303.918 24.47 305.388 19.36 309.028 19.36ZM349.543 51H366.553V50.16C364.173 50.09 363.473 49.39 363.473 47.71V28.6C363.473 28.11 363.473 27.69 363.403 26.85C365.293 24.33 367.393 22.86 368.793 22.86C372.013 22.86 373.203 25.03 373.203 28.67V47.71C373.203 49.39 372.503 50.09 370.053 50.16V51H388.673V50.16C384.683 50.09 383.983 49.39 383.983 47.71V28.6C383.983 21.88 381.113 18.17 374.883 18.17C370.543 18.17 365.993 21.32 363.193 25.45C362.423 20.76 359.553 18.17 354.443 18.17C349.893 18.17 345.833 20.9 342.893 25.03V18.38L327.493 19.22V20.06C331.483 20.13 332.253 21.39 332.253 23.49V47.71C332.253 49.39 331.483 50.09 327.493 50.16V51H346.113V50.16C343.663 50.09 343.033 49.39 343.033 47.71V26.43C344.783 24.26 345.903 22.86 348.003 22.86C351.223 22.86 352.693 25.03 352.693 28.67V47.71C352.693 49.39 352.063 50.09 349.543 50.16V51ZM400.675 13.62C404.455 13.62 406.905 11.17 406.905 7.32C406.905 3.61 404.455 1.23 400.675 1.23C396.965 1.23 394.445 3.75 394.445 7.6C394.445 11.45 396.965 13.62 400.675 13.62ZM390.385 51H410.895V50.16C406.835 50.09 406.205 49.39 406.205 47.71V18.38L390.385 19.22V20.06C394.375 20.13 395.425 21.39 395.425 23.49V47.71C395.425 49.39 394.375 50.09 390.385 50.16V51ZM414.059 51.56H414.899L416.999 48.83C418.819 49.95 425.399 51.56 427.989 51.56C436.179 51.56 441.989 46.73 441.989 40.15C441.989 34.13 437.649 31.47 429.949 29.65C425.539 28.6 422.459 27.34 422.459 24.47C422.459 21.32 424.349 19.36 427.359 19.36C431.909 19.36 434.709 22.79 438.769 29.02H439.819V17.96H438.979L436.879 20.55C434.569 19.01 431.349 17.96 427.359 17.96C419.309 17.96 414.059 22.23 414.059 29.02C414.059 34.34 417.139 36.58 424.629 38.82C432.119 41.06 433.869 42.32 433.869 45.4C433.869 48.41 431.979 50.16 428.689 50.16C423.719 50.16 419.659 46.38 415.109 39.24H414.059V51.56ZM459.244 51.56C464.914 51.56 467.714 49.04 469.604 43.79L468.694 43.37C467.364 46.52 465.824 47.85 463.584 47.85C460.434 47.85 459.454 45.96 459.454 42.04V21.32H469.324V19.01H459.454V7.04L448.814 9.98V18.87L442.584 20.13V21.46H448.674V41.41C448.674 49.04 453.504 51.56 459.244 51.56Z" fill="black"/>
</svg>
